<?xml version="1.0" encoding="UTF-8"?> <svg xmlns="http://www.w3.org/2000/svg" viewBox="0 0 550.47 69.32"><defs><style>.cls-1{fill:#e62e04;}.cls-2{fill:#f77b0b;}.cls-3{fill:#f8b55b;}.cls-4{fill:#fff;}</style></defs><title>Asset 2</title><g id="Layer_2" data-name="Layer 2"><g id="Layer_1-2" data-name="Layer 1"><path class="cls-1" d="M550.47,62H483.4v.87a.54.54,0,0,0,.17,0H550.3a.54.54,0,0,0,.17,0Z"></path><path class="cls-1" d="M483.39,66.71s0,0,0,0V58.33s0,0,0,0h-.87v8.37a0,0,0,0,0,0,0Z"></path><path class="cls-1" d="M67.72,63.05a.54.54,0,0,0,.17,0h66.73a.54.54,0,0,0,.17,0v-.86H67.72Z"></path><path class="cls-1" d="M134.8,58.31s0,0,0,0v8.35s0,0,0,0h.87a0,0,0,0,0,0,0V58.31Z"></path><path class="cls-1" d="M159.86,62.13a2.79,2.79,0,0,1,.62,1.78,2.76,2.76,0,0,1-.44,1.52,3,3,0,0,1-1.27,1.08,4.54,4.54,0,0,1-1.94.39h-4.45V55.78h4.24a4.69,4.69,0,0,1,2,.38,2.94,2.94,0,0,1,1.23,1,2.63,2.63,0,0,1,.41,1.45,2.47,2.47,0,0,1-.51,1.6,3,3,0,0,1-1.37.95A2.47,2.47,0,0,1,159.86,62.13Zm-5.65-1.68h2.25a2.16,2.16,0,0,0,1.4-.41,1.41,1.41,0,0,0,.51-1.17,1.44,1.44,0,0,0-.51-1.18,2.11,2.11,0,0,0-1.4-.42h-2.25ZM158.13,65a1.55,1.55,0,0,0,.53-1.25,1.62,1.62,0,0,0-.56-1.29,2.22,2.22,0,0,0-1.49-.48h-2.4v3.47h2.46A2.18,2.18,0,0,0,158.13,65Z"></path><path class="cls-1" d="M167.49,57.25v3.26h3.84V62h-3.84v3.41h4.32V66.9h-6.15V55.76h6.15v1.49Z"></path><path class="cls-1" d="M178.9,66.62a3.28,3.28,0,0,1-1.41-1.11,2.83,2.83,0,0,1-.51-1.68h2A1.73,1.73,0,0,0,179.5,65a2,2,0,0,0,1.41.46,2.19,2.19,0,0,0,1.47-.45,1.48,1.48,0,0,0,.53-1.18,1.27,1.27,0,0,0-.33-.91,2.1,2.1,0,0,0-.81-.54,12.58,12.58,0,0,0-1.35-.42,13.13,13.13,0,0,1-1.77-.58,3,3,0,0,1-1.16-.92A2.67,2.67,0,0,1,177,58.8a3,3,0,0,1,.48-1.68,3,3,0,0,1,1.34-1.1,4.82,4.82,0,0,1,2-.39,4.17,4.17,0,0,1,2.65.81,3,3,0,0,1,1.14,2.22h-2a1.46,1.46,0,0,0-.58-1,2.1,2.1,0,0,0-1.39-.43,2,2,0,0,0-1.28.4,1.39,1.39,0,0,0-.5,1.15,1.17,1.17,0,0,0,.32.84,2.14,2.14,0,0,0,.79.52,11.75,11.75,0,0,0,1.31.41,14.82,14.82,0,0,1,1.8.61,3,3,0,0,1,1.18.94,2.65,2.65,0,0,1,.49,1.69,3.1,3.1,0,0,1-.45,1.6,3.31,3.31,0,0,1-1.33,1.2,4.32,4.32,0,0,1-2.06.46A4.94,4.94,0,0,1,178.9,66.62Z"></path><path class="cls-1" d="M197.3,55.78v1.49h-3V66.9h-1.83V57.27h-3V55.78Z"></path><path class="cls-1" d="M215.47,66.9l-2.56-4.45h-1.39V66.9H209.7V55.78h3.83a4.74,4.74,0,0,1,2.17.45,3,3,0,0,1,1.33,1.2,3.29,3.29,0,0,1,.44,1.68,3.33,3.33,0,0,1-.63,2,3.2,3.2,0,0,1-2,1.21l2.76,4.61ZM211.52,61h2a2.13,2.13,0,0,0,1.55-.51,1.82,1.82,0,0,0,.52-1.37,1.8,1.8,0,0,0-.51-1.36,2.21,2.21,0,0,0-1.56-.48h-2Z"></path><path class="cls-1" d="M229.71,64.63h-4.66l-.79,2.27h-1.91l4-11.14h2.12l4,11.14h-1.92Zm-.51-1.49L227.39,58l-1.82,5.17Z"></path><path class="cls-1" d="M244.54,55.78v1.49h-3V66.9h-1.82V57.27h-3V55.78Z"></path><path class="cls-1" d="M251.41,57.25v3.26h3.84V62h-3.84v3.41h4.32V66.9h-6.15V55.76h6.15v1.49Z"></path><path class="cls-1" d="M267.91,56.46A4.79,4.79,0,0,1,270,58.41a5.84,5.84,0,0,1,.73,3,5.68,5.68,0,0,1-.73,2.94,4.76,4.76,0,0,1-2.06,1.91,6.82,6.82,0,0,1-3.11.67h-3.63V55.78h3.63A6.69,6.69,0,0,1,267.91,56.46Zm-.12,7.89a4.05,4.05,0,0,0,1-3,4.24,4.24,0,0,0-1-3,4,4,0,0,0-3-1.08H263v8.14h1.81A4,4,0,0,0,267.79,64.35Z"></path><path class="cls-1" d="M284.89,57.25v3.26h3.84V62h-3.84v3.41h4.32V66.9h-6.14V55.76h6.14v1.49Z"></path><path class="cls-1" d="M294.81,58.39a5.36,5.36,0,0,1,2.06-2,5.82,5.82,0,0,1,2.86-.73,5.76,5.76,0,0,1,3.16.88,4.91,4.91,0,0,1,2,2.47H302.7a2.9,2.9,0,0,0-1.2-1.31,3.52,3.52,0,0,0-1.77-.44,3.87,3.87,0,0,0-2,.5,3.43,3.43,0,0,0-1.35,1.42,4.53,4.53,0,0,0-.49,2.16,4.47,4.47,0,0,0,.49,2.16,3.48,3.48,0,0,0,1.35,1.44,3.87,3.87,0,0,0,2,.5A3.52,3.52,0,0,0,301.5,65a3,3,0,0,0,1.2-1.31h2.19a4.93,4.93,0,0,1-2,2.46,6.16,6.16,0,0,1-6,.14,5.4,5.4,0,0,1-2.05-2,6,6,0,0,1,0-5.85Z"></path><path class="cls-1" d="M312.44,66.28a5.38,5.38,0,0,1-2.07-2,5.8,5.8,0,0,1-.76-2.94,5.73,5.73,0,0,1,.76-2.92,5.45,5.45,0,0,1,2.07-2,5.81,5.81,0,0,1,2.85-.73,5.87,5.87,0,0,1,2.88.73,5.33,5.33,0,0,1,2.05,2,5.72,5.72,0,0,1,.75,2.92,5.79,5.79,0,0,1-.75,2.94,5.26,5.26,0,0,1-2.05,2,5.76,5.76,0,0,1-2.88.73A5.71,5.71,0,0,1,312.44,66.28Zm4.82-1.36a3.36,3.36,0,0,0,1.35-1.44,5,5,0,0,0,0-4.33,3.43,3.43,0,0,0-1.35-1.42,4.11,4.11,0,0,0-3.93,0A3.51,3.51,0,0,0,312,59.15a5.12,5.12,0,0,0,0,4.33,3.44,3.44,0,0,0,1.36,1.44,4,4,0,0,0,3.93,0Z"></path><path class="cls-1" d="M337.68,55.78V66.9h-1.83V59.28l-3.39,7.62H331.2l-3.41-7.62V66.9H326V55.78h2l3.91,8.72,3.89-8.72Z"></path><path class="cls-1" d="M355,55.78V66.9h-1.82V59.28l-3.4,7.62h-1.26l-3.41-7.62V66.9h-1.82V55.78h2l3.9,8.72L353,55.78Z"></path><path class="cls-1" d="M362.41,57.25v3.26h3.84V62h-3.84v3.41h4.32V66.9h-6.14V55.76h6.14v1.49Z"></path><path class="cls-1" d="M378,66.9l-2.56-4.45H374V66.9h-1.83V55.78H376a4.74,4.74,0,0,1,2.17.45,3,3,0,0,1,1.33,1.2,3.29,3.29,0,0,1,.44,1.68,3.33,3.33,0,0,1-.63,2,3.2,3.2,0,0,1-1.95,1.21l2.76,4.61ZM374,61h2a2.13,2.13,0,0,0,1.55-.51,1.86,1.86,0,0,0,.52-1.37,1.8,1.8,0,0,0-.51-1.36,2.22,2.22,0,0,0-1.56-.48h-2Z"></path><path class="cls-1" d="M385.64,58.39a5.36,5.36,0,0,1,2.06-2,5.82,5.82,0,0,1,2.86-.73,5.76,5.76,0,0,1,3.16.88,5,5,0,0,1,2,2.47h-2.2a2.79,2.79,0,0,0-1.2-1.31,3.52,3.52,0,0,0-1.77-.44,3.9,3.9,0,0,0-2,.5,3.43,3.43,0,0,0-1.35,1.42,4.53,4.53,0,0,0-.49,2.16,4.47,4.47,0,0,0,.49,2.16,3.48,3.48,0,0,0,1.35,1.44,3.9,3.9,0,0,0,2,.5,3.52,3.52,0,0,0,1.77-.43,2.89,2.89,0,0,0,1.2-1.31h2.2a5,5,0,0,1-2,2.46,6.16,6.16,0,0,1-6,.14,5.4,5.4,0,0,1-2.05-2,6,6,0,0,1,0-5.85Z"></path><path class="cls-1" d="M402.88,57.25v3.26h3.84V62h-3.84v3.41h4.32V66.9h-6.15V55.76h6.15v1.49Z"></path><path class="cls-1" d="M421.82,55.78V66.9H420V55.78Z"></path><path class="cls-1" d="M434.6,55.78v1.49h-3V66.9h-1.82V57.27h-3V55.78Z"></path><path class="cls-1" d="M441.47,57.25v3.26h3.84V62h-3.84v3.41h4.32V66.9h-6.15V55.76h6.15v1.49Z"></path><path class="cls-1" d="M462.94,55.78V66.9h-1.82V59.28l-3.4,7.62h-1.26l-3.41-7.62V66.9h-1.82V55.78h2l3.9,8.72L461,55.78Z"></path><path class="cls-2" d="M85.48,36.61H75.34l-2.12,6.1H68.49l9.89-26.19h4.08l9.91,26.19H87.62Zm-8.86-3.67h7.59l-3.8-10.86Z"></path><path class="cls-2" d="M116.78,34.18a9.43,9.43,0,0,1-3.09,6.54,10.58,10.58,0,0,1-7.18,2.35A10.22,10.22,0,0,1,101,41.58a9.78,9.78,0,0,1-3.68-4.21A15.37,15.37,0,0,1,96,31V28.57A15.29,15.29,0,0,1,97.29,22a9.9,9.9,0,0,1,3.76-4.35,10.52,10.52,0,0,1,5.68-1.53,10.16,10.16,0,0,1,7,2.35,9.84,9.84,0,0,1,3.07,6.65h-4.53a6.52,6.52,0,0,0-1.65-4.08,5.44,5.44,0,0,0-3.87-1.25A5.33,5.33,0,0,0,102.17,22q-1.59,2.17-1.63,6.36v2.33a11.53,11.53,0,0,0,1.52,6.48,5.06,5.06,0,0,0,4.45,2.23,5.85,5.85,0,0,0,4-1.21,6.27,6.27,0,0,0,1.71-4Z"></path><path class="cls-2" d="M141.08,20.19h-8.16V42.71h-4.51V20.19h-8.1V16.52h20.77Z"></path><path class="cls-2" d="M151.16,42.71h-4.53V16.52h4.53Z"></path><path class="cls-2" d="M167.82,37l6.65-20.49h5l-9.42,26.19h-4.41l-9.38-26.19h5Z"></path><path class="cls-2" d="M199.57,31H188.81v8.05h12.57v3.64H184.26V16.52h17v3.67H188.81v7.23h10.76Z"></path><path class="cls-1" d="M233.24,31H222.49v8.05h12.57v3.64H217.94V16.52h17v3.67H222.49v7.23h10.75Z"></path><path class="cls-1" d="M260.59,34.18a9.48,9.48,0,0,1-3.1,6.54,10.55,10.55,0,0,1-7.17,2.35,10.17,10.17,0,0,1-5.51-1.49,9.71,9.71,0,0,1-3.68-4.21A15.37,15.37,0,0,1,239.78,31V28.57A15.44,15.44,0,0,1,241.09,22a9.92,9.92,0,0,1,3.77-4.35,10.51,10.51,0,0,1,5.67-1.53,10.15,10.15,0,0,1,7,2.35,9.85,9.85,0,0,1,3.08,6.65h-4.54a6.46,6.46,0,0,0-1.64-4.08,5.45,5.45,0,0,0-3.88-1.25A5.33,5.33,0,0,0,246,22a10.83,10.83,0,0,0-1.62,6.36v2.33a11.45,11.45,0,0,0,1.52,6.48,5,5,0,0,0,4.45,2.23,5.87,5.87,0,0,0,4-1.21,6.27,6.27,0,0,0,1.7-4Z"></path><path class="cls-1" d="M287.39,30.3a16.16,16.16,0,0,1-1.33,6.75,10.08,10.08,0,0,1-3.81,4.46,11.12,11.12,0,0,1-11.36,0A10.25,10.25,0,0,1,267,37.08a15.62,15.62,0,0,1-1.38-6.64V29A16,16,0,0,1,267,22.21a10.22,10.22,0,0,1,3.83-4.49,10.42,10.42,0,0,1,5.68-1.56,10.57,10.57,0,0,1,5.67,1.54A10.11,10.11,0,0,1,286,22.12a16,16,0,0,1,1.37,6.72Zm-4.55-1.37a11.43,11.43,0,0,0-1.65-6.67,5.81,5.81,0,0,0-9.28,0,11.27,11.27,0,0,0-1.7,6.54V30.3A11.28,11.28,0,0,0,271.9,37a5.41,5.41,0,0,0,4.66,2.36A5.35,5.35,0,0,0,281.21,37c1.08-1.53,1.63-3.77,1.63-6.72Z"></path><path class="cls-1" d="M299.66,16.52l7.55,20.07,7.54-20.07h5.88V42.71h-4.54V34.07l.45-11.54-7.73,20.18h-3.25l-7.72-20.16.45,11.52v8.64h-4.53V16.52Z"></path><path class="cls-1" d="M333.74,16.52l7.56,20.07,7.53-20.07h5.88V42.71h-4.53V34.07l.45-11.54L342.9,42.71h-3.26l-7.71-20.16.45,11.52v8.64h-4.54V16.52Z"></path><path class="cls-1" d="M377.23,31H366.48v8.05h12.57v3.64H361.93V16.52h17v3.67H366.48v7.23h10.75Z"></path><path class="cls-1" d="M394.22,32.64h-5.08V42.71h-4.55V16.52h9.21c3,0,5.36.68,7,2a7.18,7.18,0,0,1,2.46,5.88,7.34,7.34,0,0,1-1.27,4.4,8.08,8.08,0,0,1-3.53,2.73l5.88,10.9v.24h-4.87ZM389.14,29h4.68a5.24,5.24,0,0,0,3.6-1.16,4.06,4.06,0,0,0,1.29-3.18,4.33,4.33,0,0,0-1.19-3.25A5.11,5.11,0,0,0,394,20.19h-4.81Z"></path><path class="cls-1" d="M429.4,34.18a9.48,9.48,0,0,1-3.1,6.54,10.55,10.55,0,0,1-7.17,2.35,10.19,10.19,0,0,1-5.51-1.49,9.71,9.71,0,0,1-3.68-4.21A15.37,15.37,0,0,1,408.59,31V28.57A15.44,15.44,0,0,1,409.9,22a9.92,9.92,0,0,1,3.77-4.35,10.51,10.51,0,0,1,5.67-1.53,10.15,10.15,0,0,1,7,2.35,9.85,9.85,0,0,1,3.08,6.65h-4.53a6.52,6.52,0,0,0-1.65-4.08,5.45,5.45,0,0,0-3.88-1.25A5.32,5.32,0,0,0,414.79,22a10.83,10.83,0,0,0-1.63,6.36v2.33a11.45,11.45,0,0,0,1.52,6.48,5,5,0,0,0,4.45,2.23,5.87,5.87,0,0,0,4-1.21,6.27,6.27,0,0,0,1.71-4Z"></path><path class="cls-1" d="M450.61,31H439.85v8.05h12.57v3.64H435.3V16.52h17v3.67H439.85v7.23h10.76Z"></path><path class="cls-2" d="M489,34.18a9.43,9.43,0,0,1-3.09,6.54,10.58,10.58,0,0,1-7.18,2.35,10.22,10.22,0,0,1-5.51-1.49,9.78,9.78,0,0,1-3.68-4.21A15.37,15.37,0,0,1,468.15,31V28.57A15.29,15.29,0,0,1,469.47,22a9.9,9.9,0,0,1,3.76-4.35,10.52,10.52,0,0,1,5.68-1.53,10.16,10.16,0,0,1,7,2.35A9.84,9.84,0,0,1,489,25.16h-4.53a6.52,6.52,0,0,0-1.65-4.08,5.44,5.44,0,0,0-3.87-1.25A5.33,5.33,0,0,0,474.35,22q-1.59,2.17-1.63,6.36v2.33a11.53,11.53,0,0,0,1.52,6.48,5.06,5.06,0,0,0,4.45,2.23,5.85,5.85,0,0,0,4-1.21,6.27,6.27,0,0,0,1.71-4Z"></path><path class="cls-2" d="M500.76,16.52l7.56,20.07,7.53-20.07h5.88V42.71H517.2V34.07l.45-11.54-7.73,20.18h-3.26L499,22.55l.45,11.52v8.64h-4.53V16.52Z"></path><path class="cls-2" d="M542.64,36a3.16,3.16,0,0,0-1.22-2.66A14.83,14.83,0,0,0,537,31.41a20.73,20.73,0,0,1-5-2.12q-3.59-2.25-3.58-5.86A6.39,6.39,0,0,1,531,18.21a10.48,10.48,0,0,1,6.7-2.05,11.34,11.34,0,0,1,4.87,1A7.94,7.94,0,0,1,545.94,20a7.33,7.33,0,0,1,1.23,4.13h-4.53A4.09,4.09,0,0,0,541.35,21a5.28,5.28,0,0,0-3.68-1.16,5.52,5.52,0,0,0-3.46.95A3.18,3.18,0,0,0,533,23.41a2.86,2.86,0,0,0,1.33,2.4,15.25,15.25,0,0,0,4.39,1.87,20.56,20.56,0,0,1,4.91,2.07,7.76,7.76,0,0,1,2.71,2.66,6.88,6.88,0,0,1,.87,3.52,6.23,6.23,0,0,1-2.51,5.2,10.89,10.89,0,0,1-6.81,1.94A12.62,12.62,0,0,1,532.65,42a8.8,8.8,0,0,1-3.71-2.9,7.23,7.23,0,0,1-1.32-4.32h4.55a4.26,4.26,0,0,0,1.47,3.46,6.52,6.52,0,0,0,4.23,1.22,5.63,5.63,0,0,0,3.57-1A3.1,3.1,0,0,0,542.64,36Z"></path><path class="cls-1" d="M54.08,67.46a1.72,1.72,0,0,1-1.71,1.86H1.72A1.71,1.71,0,0,1,0,67.46L4,17.87a1.72,1.72,0,0,1,1.71-1.58H48.35a1.71,1.71,0,0,1,1.71,1.58Z"></path><path class="cls-3" d="M40.8,19.68H38V13.76a11,11,0,0,0-21.91,0v5.92H13.28V13.76a13.76,13.76,0,0,1,27.52,0Z"></path><path class="cls-4" d="M14.68,16.25a3.65,3.65,0,1,0,3.65,3.64A3.64,3.64,0,0,0,14.68,16.25Z"></path><path class="cls-4" d="M39.4,16.25a3.65,3.65,0,1,0,3.65,3.64A3.64,3.64,0,0,0,39.4,16.25Z"></path><path class="cls-4" d="M38.36,52.85l-4.73-4.73L37,46.18a.81.81,0,0,0,.4-.75.83.83,0,0,0-.5-.68l-15-6a.79.79,0,0,0-1,1l6,15a.83.83,0,0,0,.68.5.79.79,0,0,0,.75-.4l1.94-3.37,4.73,4.73a.8.8,0,0,0,1.12,0L38.36,54A.79.79,0,0,0,38.36,52.85Zm-2.87,1.74L30.6,49.7a.81.81,0,0,0-.57-.23h-.1a.79.79,0,0,0-.58.39L27.7,52.71,23,40.92l11.79,4.7-2.85,1.65a.79.79,0,0,0-.16,1.25l4.89,4.89Z"></path><path class="cls-4" d="M18.34,35.13a.8.8,0,1,0-1.13,1.13L19,38a.8.8,0,0,0,1.12,0,.79.79,0,0,0,0-1.12Z"></path><path class="cls-4" d="M18.94,40.62a.79.79,0,0,0-.8-.79H15.65a.79.79,0,0,0-.8.79.8.8,0,0,0,.8.8h2.49A.8.8,0,0,0,18.94,40.62Z"></path><path class="cls-4" d="M18.61,43.07l-1.76,1.77a.79.79,0,0,0,0,1.12A.8.8,0,0,0,18,46l1.77-1.77a.79.79,0,0,0,0-1.12A.8.8,0,0,0,18.61,43.07Z"></path><path class="cls-4" d="M22.7,36.85a.79.79,0,0,0,.8-.79V33.57a.8.8,0,0,0-.8-.8.79.79,0,0,0-.79.8v2.49A.79.79,0,0,0,22.7,36.85Z"></path><path class="cls-4" d="M25.71,37.89a.76.76,0,0,0,.56-.24L28,35.89a.79.79,0,1,0-1.12-1.12l-1.77,1.76a.8.8,0,0,0,.56,1.36Z"></path></g></g></svg> 